<svg class="animated" id="freepik_stories-ozone-layer-depletion" xmlns="http://www.w3.org/2000/svg" viewBox="0 0 500 500" version="1.1" xmlns:xlink="http://www.w3.org/1999/xlink" xmlns:svgjs="http://svgjs.com/svgjs"><style>svg#freepik_stories-ozone-layer-depletion:not(.animated) .animable {opacity: 0;}svg#freepik_stories-ozone-layer-depletion.animated #freepik--Background--inject-4 {animation: 1s 1 forwards cubic-bezier(.36,-0.01,.5,1.38) zoomOut;animation-delay: 0s;}svg#freepik_stories-ozone-layer-depletion.animated #freepik--Stars--inject-4 {animation: 1s 1 forwards cubic-bezier(.36,-0.01,.5,1.38) lightSpeedRight;animation-delay: 0s;}svg#freepik_stories-ozone-layer-depletion.animated #freepik--Earth--inject-4 {animation: 1s 1 forwards cubic-bezier(.36,-0.01,.5,1.38) fadeIn,1.5s Infinite  linear floating;animation-delay: 0s,1s;}svg#freepik_stories-ozone-layer-depletion.animated #freepik--ozone-layer--inject-4 {animation: 1s 1 forwards cubic-bezier(.36,-0.01,.5,1.38) lightSpeedLeft;animation-delay: 0s;}svg#freepik_stories-ozone-layer-depletion.animated #freepik--Arrows--inject-4 {animation: 1s 1 forwards cubic-bezier(.36,-0.01,.5,1.38) slideDown,1.5s Infinite  linear wind;animation-delay: 0s,1s;}            @keyframes zoomOut {                0% {                    opacity: 0;                    transform: scale(1.5);                }                100% {                    opacity: 1;                    transform: scale(1);                }            }                    @keyframes lightSpeedRight {              from {                transform: translate3d(50%, 0, 0) skewX(-20deg);                opacity: 0;              }              60% {                transform: skewX(10deg);                opacity: 1;              }              80% {                transform: skewX(-2deg);              }              to {                opacity: 1;                transform: translate3d(0, 0, 0);              }            }                    @keyframes fadeIn {                0% {                    opacity: 0;                }                100% {                    opacity: 1;                }            }                    @keyframes floating {                0% {                    opacity: 1;                    transform: translateY(0px);                }                50% {                    transform: translateY(-10px);                }                100% {                    opacity: 1;                    transform: translateY(0px);                }            }                    @keyframes lightSpeedLeft {              from {                transform: translate3d(-50%, 0, 0) skewX(20deg);                opacity: 0;              }              60% {                transform: skewX(-10deg);                opacity: 1;              }              80% {                transform: skewX(2deg);              }              to {                opacity: 1;                transform: translate3d(0, 0, 0);              }            }                    @keyframes slideDown {                0% {                    opacity: 0;                    transform: translateY(-30px);                }                100% {                    opacity: 1;                    transform: translateY(0);                }            }                    @keyframes wind {                0% {                    transform: rotate( 0deg );                }                25% {                    transform: rotate( 1deg );                }                75% {                    transform: rotate( -1deg );                }            }        .animator-hidden { display: none; }</style><g id="freepik--Background--inject-4" class="animable" style="transform-origin: 250.101px 245.205px;"><g id="freepik--background--inject-4" class="animable" style="transform-origin: 250.101px 245.205px;"><path d="M268.67,21.67C173.71,3.8,69.9,41.19,30.29,127.55,6,180.61,3.11,277.24,49.81,352,92.72,420.73,176.13,473.38,261.89,473.1c131.62-.42,210-76.32,223.55-184.82C500,171.38,420.76,50.29,268.67,21.67ZM112.11,436.51C95.93,425.67,80.31,415.2,67,401c-11.12-11.85-25.62-32.87-40.54-16.63-4.08,4.44-6,10.52-6.89,16.48-4.88,31.52,23.64,59.7,52.25,66.16a71.47,71.47,0,0,0,30.81,0c7-1.56,14-4.64,16.22-12.28a16.25,16.25,0,0,0-.68-10.85A16.57,16.57,0,0,0,112.11,436.51ZM389.59,56.09A277,277,0,0,1,433.16,95c11,11.92,24.18,32.44,39.78,16.86,4.27-4.26,6.42-10.25,7.6-16.17,6.23-31.28-21.05-60.66-49.37-68.34a71.39,71.39,0,0,0-30.78-1.33c-7.09,1.26-14.21,4-16.73,11.57a16.29,16.29,0,0,0,.21,10.88A16.66,16.66,0,0,0,389.59,56.09Z" style="fill: rgb(69, 90, 100); transform-origin: 250.101px 245.205px;" id="elri2c6lmdzsk" class="animable"></path><path d="M70.3,135.18c.78,10.33,5.46,23.55,17.25,25.07a24.45,24.45,0,0,0,6.39-.22c4.54-.64,9.17-1.45,13.14-3.81,12-7.11,22.79-16,34.76-23.08,10.39-6.15,20.94-9.37,32.84-10.9,12.87-1.67,28.78-.45,38-11.4,10.23-12.14,10.66-26,3.15-39.4-8.4-15-28.88-21.48-45.16-22.77C123.12,44.88,66.38,82.68,70.3,135.18ZM398,234c-14,5.18-21,18.44-25.66,31.76-5.49,15.78-8.2,31.76-16.08,46.64-4.18,7.9-9.43,16-9.31,25,.36,26.08,27,33.1,46.6,23.55,13.82-6.74,24.91-17.46,33.28-28.22,12.54-16.11,21.29-40.49,18.1-63.75C440.19,234.14,415,227.67,398,234ZM203.48,405.24A63.26,63.26,0,0,1,184.89,401c-8-3.19-18.12-4.93-23.76,3.3-10.31,15,9.41,32.82,22.82,37.05,12.38,3.89,27.54,5.39,40.26,2.36,10.53-2.51,20.94-7.79,26.94-17.13.26-.4.51-.81.75-1.22,4-7,3.08-15.59-3.41-20.91-8.4-6.88-23.63-.54-33,.57A63,63,0,0,1,203.48,405.24Z" style="fill: rgb(55, 71, 79); transform-origin: 257.849px 246.865px;" id="elq2wq4xk5ajj" class="animable"></path></g></g><g id="freepik--Stars--inject-4" class="animable" style="transform-origin: 253.003px 247.531px;"><path d="M411.47,281.77a8.14,8.14,0,1,1,8.13-8.14A8.15,8.15,0,0,1,411.47,281.77Zm0-15.79a7.65,7.65,0,1,0,7.64,7.65A7.66,7.66,0,0,0,411.47,266Z" style="fill: #7E57C2; transform-origin: 411.46px 273.63px;" id="elqsd0dyx1l0c" class="animable"></path><path d="M413.78,273.63a2.32,2.32,0,1,1-2.31-2.32A2.31,2.31,0,0,1,413.78,273.63Z" style="fill: #7E57C2; transform-origin: 411.46px 273.63px;" id="el8ey6oe4zwg2" class="animable"></path><path d="M68.79,318.76h-.42a7.94,7.94,0,1,1,.42,0Zm0-15.15a7.24,7.24,0,0,0-.38,14.46,7.16,7.16,0,0,0,5.23-1.84,7.24,7.24,0,0,0-4.46-12.61Z" style="fill: #7E57C2; transform-origin: 68.58px 310.821px;" id="elq85yyokl0sa" class="animable"></path><path d="M71,311a2.22,2.22,0,1,1-2.11-2.34A2.22,2.22,0,0,1,71,311Z" style="fill: #7E57C2; transform-origin: 68.7834px 310.877px;" id="elcs0q726algh" class="animable"></path><path d="M228.08,431.93a8.39,8.39,0,1,1,8.39-8.39A8.41,8.41,0,0,1,228.08,431.93Zm0-16.1a7.71,7.71,0,1,0,7.71,7.71A7.72,7.72,0,0,0,228.08,415.83Z" style="fill: #7E57C2; transform-origin: 228.08px 423.54px;" id="el5vzjmihmjvl" class="animable"></path><path d="M230.44,423.54a2.37,2.37,0,1,1-2.36-2.36A2.36,2.36,0,0,1,230.44,423.54Z" style="fill: #7E57C2; transform-origin: 228.07px 423.55px;" id="elr6ancb7wkks" class="animable"></path><path d="M161.94,83a11.75,11.75,0,1,1,11.75-11.75A11.77,11.77,0,0,1,161.94,83Zm0-22.82A11.07,11.07,0,1,0,173,71.24,11.09,11.09,0,0,0,161.94,60.17Z" style="fill: #7E57C2; transform-origin: 161.94px 71.25px;" id="elsahmzcswfem" class="animable"></path><path d="M158.59,71.24a3.35,3.35,0,1,1,3.35,3.35A3.35,3.35,0,0,1,158.59,71.24Z" style="fill: #7E57C2; transform-origin: 161.94px 71.24px;" id="el9fugmdhx7v" class="animable"></path><path d="M302.09,69.14a2.15,2.15,0,1,1,2.56,1.65A2.14,2.14,0,0,1,302.09,69.14Z" style="fill: #7E57C2; transform-origin: 304.192px 68.6903px;" id="ele9yuvaer29h" class="animable"></path><path d="M293.22,70a1.25,1.25,0,1,1,1.49,1A1.26,1.26,0,0,1,293.22,70Z" style="fill: #7E57C2; transform-origin: 294.45px 69.7764px;" id="el4x6ezmuf04w" class="animable"></path><path d="M129.62,220.66a1.08,1.08,0,1,1,.81,2,1.08,1.08,0,0,1-.81-2Z" style="fill: #7E57C2; transform-origin: 130.07px 221.642px;" id="eli42m3xd0mq8" class="animable"></path><path d="M138,213.48a1.77,1.77,0,1,1-1,2.3A1.77,1.77,0,0,1,138,213.48Z" style="fill: #7E57C2; transform-origin: 138.646px 215.128px;" id="elscybfutlx7" class="animable"></path><path d="M353.79,389.34a2.26,2.26,0,1,1-3.18-.29A2.25,2.25,0,0,1,353.79,389.34Z" style="fill: #7E57C2; transform-origin: 352.055px 390.786px;" id="el5denzuwfomm" class="animable"></path><path d="M349.92,398.47a1.35,1.35,0,1,1-1.9-.17A1.36,1.36,0,0,1,349.92,398.47Z" style="fill: #7E57C2; transform-origin: 348.885px 399.339px;" id="el0dvyvvz6nz2c" class="animable"></path><path d="M344.07,391.46a1.09,1.09,0,1,1-1.53-.14A1.09,1.09,0,0,1,344.07,391.46Z" style="fill: #7E57C2; transform-origin: 343.235px 392.16px;" id="elqx453rsi26" class="animable"></path><path d="M249.83,114.36a3.14,3.14,0,1,1,3.85,2.22A3.15,3.15,0,0,1,249.83,114.36Z" style="fill: #7E57C2; transform-origin: 252.863px 113.547px;" id="el03fqde542o1j" class="animable"></path><path d="M260,105.08a1.88,1.88,0,1,1,2.3,1.33A1.89,1.89,0,0,1,260,105.08Z" style="fill: #7E57C2; transform-origin: 261.816px 104.592px;" id="elpq8qq0kamk" class="animable"></path><path d="M263.35,117.35a1.51,1.51,0,1,1,1.85,1.06A1.52,1.52,0,0,1,263.35,117.35Z" style="fill: #7E57C2; transform-origin: 264.807px 116.951px;" id="eley0c71hsmm" class="animable"></path><path d="M84.77,131a1.14,1.14,0,0,1-2-1.18,1.14,1.14,0,1,1,2,1.18Z" style="fill: #7E57C2; transform-origin: 83.7717px 130.407px;" id="el3ejh9wul5ib" class="animable"></path><path d="M98.9,121.18l.9,3.51,3.4,1.25a.42.42,0,0,1,.08.74l-3.06,1.94-.14,3.62a.41.41,0,0,1-.68.3l-2.79-2.31-3.48,1a.42.42,0,0,1-.5-.55L94,127.3l-2-3a.42.42,0,0,1,.37-.65l3.62.23L98.18,121A.41.41,0,0,1,98.9,121.18Z" style="fill: #7E57C2; transform-origin: 97.6988px 126.745px;" id="elqcrqsvllgr" class="animable"></path><path d="M53.68,227.81l1.25,2.33,2.64.29a.3.3,0,0,1,.18.51l-1.83,1.92.54,2.59a.3.3,0,0,1-.42.34l-2.39-1.15L51.35,236a.3.3,0,0,1-.45-.3l.35-2.63-2-1.78a.3.3,0,0,1,.15-.52l2.61-.47,1.08-2.42A.31.31,0,0,1,53.68,227.81Z" style="fill: #7E57C2; transform-origin: 53.4935px 231.832px;" id="el26p2yuw35vn" class="animable"></path><path d="M220.77,47.12l2.61-.47,1.09-2.42a.3.3,0,0,1,.54,0l1.25,2.33,2.64.29a.3.3,0,0,1,.18.51l-1.83,1.92.54,2.59a.31.31,0,0,1-.43.34L225,51l-2.31,1.31a.3.3,0,0,1-.44-.3l.35-2.63-2-1.78A.3.3,0,0,1,220.77,47.12Z" style="fill: #7E57C2; transform-origin: 224.851px 48.2033px;" id="elkyfi769hmn" class="animable"></path><path d="M395,327.51l-4,.73L389.27,332a.47.47,0,0,1-.84,0l-1.93-3.6-4.05-.44a.47.47,0,0,1-.29-.78l2.82-2.95-.83-4a.47.47,0,0,1,.66-.51l3.67,1.77,3.54-2a.47.47,0,0,1,.7.46l-.55,4.05,3,2.74A.47.47,0,0,1,395,327.51Z" style="fill: #7E57C2; transform-origin: 388.673px 325.844px;" id="el3n5902xcssi" class="animable"></path><path d="M439,200.59a2.73,2.73,0,1,1-3.43,1.76A2.72,2.72,0,0,1,439,200.59Z" style="fill: #7E57C2; transform-origin: 438.168px 203.189px;" id="elsryj52zlbp" class="animable"></path><path d="M450.81,207.8a1.59,1.59,0,1,1-2,1A1.58,1.58,0,0,1,450.81,207.8Z" style="fill: #7E57C2; transform-origin: 450.316px 209.31px;" id="el97nzx7urkcr" class="animable"></path><path d="M317.2,429.3l-4.12,1.43-1.16,4.2a.49.49,0,0,1-.87.17l-2.63-3.48-4.35.2a.5.5,0,0,1-.43-.78l2.49-3.58-1.53-4.07a.5.5,0,0,1,.61-.65l4.17,1.26,3.4-2.71a.5.5,0,0,1,.81.37l.08,4.36,3.64,2.4A.49.49,0,0,1,317.2,429.3Z" style="fill: #7E57C2; transform-origin: 310.546px 428.241px;" id="el3qn6bx6njhk" class="animable"></path><path d="M425.09,297.88a1.76,1.76,0,1,1,1.32,3.27,1.76,1.76,0,0,1-1.32-3.27Z" style="fill: #7E57C2; transform-origin: 425.75px 299.515px;" id="elafas76hbcpc" class="animable"></path><path d="M180.54,418.7a1.76,1.76,0,1,1-1,2.3A1.77,1.77,0,0,1,180.54,418.7Z" style="fill: #7E57C2; transform-origin: 181.174px 420.342px;" id="elqx3pcoysxwa" class="animable"></path><path d="M78.52,332.32a1.24,1.24,0,0,1,.93,2.3,1.24,1.24,0,1,1-.93-2.3Z" style="fill: #7E57C2; transform-origin: 78.9832px 333.471px;" id="ellp989rslju" class="animable"></path><path d="M420.91,56.14h-.43a7.94,7.94,0,1,1,.43,0Zm0-15.16a7.24,7.24,0,0,0-5.38,12.08,7.17,7.17,0,0,0,5,2.39,7.25,7.25,0,0,0,7.61-6.84A7.25,7.25,0,0,0,421.29,41Z" style="fill: #7E57C2; transform-origin: 420.695px 48.2015px;" id="elmcvrv6xe2ms" class="animable"></path><path d="M423.12,48.34A2.22,2.22,0,1,1,421,46,2.21,2.21,0,0,1,423.12,48.34Z" style="fill: #7E57C2; transform-origin: 420.904px 48.2179px;" id="elz1tpfz65dqs" class="animable"></path><path d="M86.23,454.8H85.8a7.94,7.94,0,1,1,.43,0Zm0-15.16A7.26,7.26,0,0,0,79,446.5a7.24,7.24,0,1,0,7.61-6.85Z" style="fill: #7E57C2; transform-origin: 86.015px 446.861px;" id="elc8r63nyb8q" class="animable"></path><path d="M88.44,447a2.22,2.22,0,1,1-2.1-2.34A2.23,2.23,0,0,1,88.44,447Z" style="fill: #7E57C2; transform-origin: 86.2232px 446.877px;" id="elv08zjjvpt08" class="animable"></path><path d="M49,413.3l-2.51.87-.7,2.55a.3.3,0,0,1-.53.1l-1.6-2.11-2.65.12a.31.31,0,0,1-.26-.48l1.51-2.17-.93-2.48a.31.31,0,0,1,.37-.4l2.54.77,2.07-1.65a.3.3,0,0,1,.49.23l.05,2.65,2.22,1.46A.31.31,0,0,1,49,413.3Z" style="fill: #7E57C2; transform-origin: 44.9486px 412.646px;" id="eldnbeye0rpwc" class="animable"></path><path d="M69.57,448.89a1.24,1.24,0,1,1-.69,1.61A1.23,1.23,0,0,1,69.57,448.89Z" style="fill: #7E57C2; transform-origin: 70.0303px 450.041px;" id="elyeyp33qdv6l" class="animable"></path><path d="M454.82,69.92a1.18,1.18,0,1,1,1.3-1A1.17,1.17,0,0,1,454.82,69.92Z" style="fill: #7E57C2; transform-origin: 454.953px 68.748px;" id="eldejtx06umnw" class="animable"></path><path d="M465.15,84.16l-2.89,2.36.3,3.72a.43.43,0,0,1-.66.39l-3.13-2-3.45,1.44a.43.43,0,0,1-.58-.51l1-3.61-2.43-2.83a.42.42,0,0,1,.3-.7l3.72-.21L459.24,79a.43.43,0,0,1,.76.07l1.35,3.48,3.63.86A.43.43,0,0,1,465.15,84.16Z" style="fill: #7E57C2; transform-origin: 459.255px 84.7498px;" id="eljfd3wn8da6" class="animable"></path><g id="elxcvilimrdu"><path d="M411.47,281.77a8.14,8.14,0,1,1,8.13-8.14A8.15,8.15,0,0,1,411.47,281.77Zm0-15.79a7.65,7.65,0,1,0,7.64,7.65A7.66,7.66,0,0,0,411.47,266Z" style="fill: rgb(255, 255, 255); opacity: 0.4; transform-origin: 411.46px 273.63px;" class="animable" id="el7qy0q09h8lr"></path></g><g id="elfopknr9vmw4"><path d="M413.78,273.63a2.32,2.32,0,1,1-2.31-2.32A2.31,2.31,0,0,1,413.78,273.63Z" style="fill: rgb(255, 255, 255); opacity: 0.6; transform-origin: 411.46px 273.63px;" class="animable" id="elwjtrw9mkna"></path></g><g id="el3dgengwm7wo"><path d="M68.79,318.76h-.42a7.94,7.94,0,1,1,.42,0Zm0-15.15a7.24,7.24,0,0,0-.38,14.46,7.16,7.16,0,0,0,5.23-1.84,7.24,7.24,0,0,0-4.46-12.61Z" style="fill: rgb(255, 255, 255); opacity: 0.4; transform-origin: 68.58px 310.821px;" class="animable" id="elv6l94sgh7fq"></path></g><g id="eltmo8pxdhpmm"><path d="M71,311a2.22,2.22,0,1,1-2.11-2.34A2.22,2.22,0,0,1,71,311Z" style="fill: rgb(255, 255, 255); opacity: 0.6; transform-origin: 68.7834px 310.877px;" class="animable" id="elpst36bqu8wh"></path></g><g id="elxwtv5u98ic"><path d="M228.08,431.93a8.39,8.39,0,1,1,8.39-8.39A8.41,8.41,0,0,1,228.08,431.93Zm0-16.1a7.71,7.71,0,1,0,7.71,7.71A7.72,7.72,0,0,0,228.08,415.83Z" style="fill: rgb(255, 255, 255); opacity: 0.4; transform-origin: 228.08px 423.54px;" class="animable" id="elc109zluekdt"></path></g><g id="el2ftiv3qv7vr"><path d="M230.44,423.54a2.37,2.37,0,1,1-2.36-2.36A2.36,2.36,0,0,1,230.44,423.54Z" style="fill: rgb(255, 255, 255); opacity: 0.6; transform-origin: 228.07px 423.55px;" class="animable" id="elliqjyauwyg8"></path></g><g id="el8ewbteqv7me"><path d="M161.94,83a11.75,11.75,0,1,1,11.75-11.75A11.77,11.77,0,0,1,161.94,83Zm0-22.82A11.07,11.07,0,1,0,173,71.24,11.09,11.09,0,0,0,161.94,60.17Z" style="fill: rgb(255, 255, 255); opacity: 0.4; transform-origin: 161.94px 71.25px;" class="animable" id="ellji91pkw9s9"></path></g><g id="elj76q95dq3nd"><path d="M158.59,71.24a3.35,3.35,0,1,1,3.35,3.35A3.35,3.35,0,0,1,158.59,71.24Z" style="fill: rgb(255, 255, 255); opacity: 0.6; transform-origin: 161.94px 71.24px;" class="animable" id="elfjw7at456kd"></path></g><g id="elcymx2zqn6br"><path d="M302.09,69.14a2.15,2.15,0,1,1,2.56,1.65A2.14,2.14,0,0,1,302.09,69.14Z" style="fill: rgb(255, 255, 255); opacity: 0.4; transform-origin: 304.192px 68.6903px;" class="animable" id="ellj1tllk4jko"></path></g><g id="el3h553163h0m"><path d="M293.22,70a1.25,1.25,0,1,1,1.49,1A1.26,1.26,0,0,1,293.22,70Z" style="fill: rgb(255, 255, 255); opacity: 0.4; transform-origin: 294.45px 69.7764px;" class="animable" id="elsq9u2mwppj9"></path></g><g id="el6fmrnz6j39"><path d="M129.62,220.66a1.08,1.08,0,1,1,.81,2,1.08,1.08,0,0,1-.81-2Z" style="fill: rgb(255, 255, 255); opacity: 0.4; transform-origin: 130.07px 221.642px;" class="animable" id="el7bnpo8pinpr"></path></g><g id="el0qal2lwtooc"><path d="M138,213.48a1.77,1.77,0,1,1-1,2.3A1.77,1.77,0,0,1,138,213.48Z" style="fill: rgb(255, 255, 255); opacity: 0.4; transform-origin: 138.646px 215.128px;" class="animable" id="el6u0byeccf7i"></path></g><g id="elok07vqu16sn"><path d="M353.79,389.34a2.26,2.26,0,1,1-3.18-.29A2.25,2.25,0,0,1,353.79,389.34Z" style="fill: rgb(255, 255, 255); opacity: 0.4; transform-origin: 352.055px 390.786px;" class="animable" id="elwkbx7gjkoy"></path></g><g id="elljpzqfsxu7g"><path d="M349.92,398.47a1.35,1.35,0,1,1-1.9-.17A1.36,1.36,0,0,1,349.92,398.47Z" style="fill: rgb(255, 255, 255); opacity: 0.4; transform-origin: 348.885px 399.339px;" class="animable" id="ellm1qygjdr8d"></path></g><g id="elhxl14i54x5w"><path d="M344.07,391.46a1.09,1.09,0,1,1-1.53-.14A1.09,1.09,0,0,1,344.07,391.46Z" style="fill: rgb(255, 255, 255); opacity: 0.4; transform-origin: 343.235px 392.16px;" class="animable" id="elkrsuguiaud"></path></g><g id="elj5d35cnk3gf"><path d="M249.83,114.36a3.14,3.14,0,1,1,3.85,2.22A3.15,3.15,0,0,1,249.83,114.36Z" style="fill: rgb(255, 255, 255); opacity: 0.4; transform-origin: 252.863px 113.547px;" class="animable" id="elqtzkjx9le3n"></path></g><g id="el7zt1uvmd55w"><path d="M260,105.08a1.88,1.88,0,1,1,2.3,1.33A1.89,1.89,0,0,1,260,105.08Z" style="fill: rgb(255, 255, 255); opacity: 0.4; transform-origin: 261.816px 104.592px;" class="animable" id="eli4nmji79aw"></path></g><g id="elnv7pyhi8fpp"><path d="M263.35,117.35a1.51,1.51,0,1,1,1.85,1.06A1.52,1.52,0,0,1,263.35,117.35Z" style="fill: rgb(255, 255, 255); opacity: 0.4; transform-origin: 264.807px 116.951px;" class="animable" id="elsh2hkaccxie"></path></g><g id="elj9yfsmlino"><path d="M84.77,131a1.14,1.14,0,0,1-2-1.18,1.14,1.14,0,1,1,2,1.18Z" style="fill: rgb(255, 255, 255); opacity: 0.4; transform-origin: 83.7717px 130.407px;" class="animable" id="el7hk7bp8gahq"></path></g><g id="elailvpdiv3r"><path d="M98.9,121.18l.9,3.51,3.4,1.25a.42.42,0,0,1,.08.74l-3.06,1.94-.14,3.62a.41.41,0,0,1-.68.3l-2.79-2.31-3.48,1a.42.42,0,0,1-.5-.55L94,127.3l-2-3a.42.42,0,0,1,.37-.65l3.62.23L98.18,121A.41.41,0,0,1,98.9,121.18Z" style="fill: rgb(255, 255, 255); opacity: 0.4; transform-origin: 97.6988px 126.745px;" class="animable" id="el3sohyw7bgkh"></path></g><g id="eljpbspfzf84"><path d="M53.68,227.81l1.25,2.33,2.64.29a.3.3,0,0,1,.18.51l-1.83,1.92.54,2.59a.3.3,0,0,1-.42.34l-2.39-1.15L51.35,236a.3.3,0,0,1-.45-.3l.35-2.63-2-1.78a.3.3,0,0,1,.15-.52l2.61-.47,1.08-2.42A.31.31,0,0,1,53.68,227.81Z" style="fill: rgb(255, 255, 255); opacity: 0.4; transform-origin: 53.4935px 231.832px;" class="animable" id="eldz9830mpq4w"></path></g><g id="elymlmtvynzgm"><path d="M220.77,47.12l2.61-.47,1.09-2.42a.3.3,0,0,1,.54,0l1.25,2.33,2.64.29a.3.3,0,0,1,.18.51l-1.83,1.92.54,2.59a.31.31,0,0,1-.43.34L225,51l-2.31,1.31a.3.3,0,0,1-.44-.3l.35-2.63-2-1.78A.3.3,0,0,1,220.77,47.12Z" style="fill: rgb(255, 255, 255); opacity: 0.4; transform-origin: 224.851px 48.2033px;" class="animable" id="elrh3ic5z4rsg"></path></g><g id="elg6ziz49eow"><path d="M395,327.51l-4,.73L389.27,332a.47.47,0,0,1-.84,0l-1.93-3.6-4.05-.44a.47.47,0,0,1-.29-.78l2.82-2.95-.83-4a.47.47,0,0,1,.66-.51l3.67,1.77,3.54-2a.47.47,0,0,1,.7.46l-.55,4.05,3,2.74A.47.47,0,0,1,395,327.51Z" style="fill: rgb(255, 255, 255); opacity: 0.4; transform-origin: 388.673px 325.844px;" class="animable" id="elawe9k8styag"></path></g><g id="eluwk2bwo9unr"><path d="M439,200.59a2.73,2.73,0,1,1-3.43,1.76A2.72,2.72,0,0,1,439,200.59Z" style="fill: rgb(255, 255, 255); opacity: 0.4; transform-origin: 438.168px 203.189px;" class="animable" id="elzai5mfcngyb"></path></g><g id="elj7puq95v7hc"><path d="M450.81,207.8a1.59,1.59,0,1,1-2,1A1.58,1.58,0,0,1,450.81,207.8Z" style="fill: rgb(255, 255, 255); opacity: 0.4; transform-origin: 450.316px 209.31px;" class="animable" id="el9ucncrz7r0l"></path></g><g id="elnx3kvzdrl58"><path d="M317.2,429.3l-4.12,1.43-1.16,4.2a.49.49,0,0,1-.87.17l-2.63-3.48-4.35.2a.5.5,0,0,1-.43-.78l2.49-3.58-1.53-4.07a.5.5,0,0,1,.61-.65l4.17,1.26,3.4-2.71a.5.5,0,0,1,.81.37l.08,4.36,3.64,2.4A.49.49,0,0,1,317.2,429.3Z" style="fill: rgb(255, 255, 255); opacity: 0.4; transform-origin: 310.546px 428.241px;" class="animable" id="el428uas1auav"></path></g><g id="elt07iqggpw0f"><path d="M425.09,297.88a1.76,1.76,0,1,1,1.32,3.27,1.76,1.76,0,0,1-1.32-3.27Z" style="fill: rgb(255, 255, 255); opacity: 0.4; transform-origin: 425.75px 299.515px;" class="animable" id="el876nra87j3i"></path></g><g id="eluo9dvlx6zqg"><path d="M180.54,418.7a1.76,1.76,0,1,1-1,2.3A1.77,1.77,0,0,1,180.54,418.7Z" style="fill: rgb(255, 255, 255); opacity: 0.4; transform-origin: 181.174px 420.342px;" class="animable" id="elukpexl4y3d"></path></g><g id="elhg6iieylq2"><path d="M78.52,332.32a1.24,1.24,0,0,1,.93,2.3,1.24,1.24,0,1,1-.93-2.3Z" style="fill: rgb(255, 255, 255); opacity: 0.4; transform-origin: 78.9832px 333.471px;" class="animable" id="elpo69k3ntge"></path></g><g id="elz71o5ebpfl"><path d="M420.91,56.14h-.43a7.94,7.94,0,1,1,.43,0Zm0-15.16a7.24,7.24,0,0,0-5.38,12.08,7.17,7.17,0,0,0,5,2.39,7.25,7.25,0,0,0,7.61-6.84A7.25,7.25,0,0,0,421.29,41Z" style="fill: rgb(255, 255, 255); opacity: 0.4; transform-origin: 420.695px 48.2015px;" class="animable" id="el86xsscitbd4"></path></g><g id="elynhhz1o9v48"><path d="M423.12,48.34A2.22,2.22,0,1,1,421,46,2.21,2.21,0,0,1,423.12,48.34Z" style="fill: rgb(255, 255, 255); opacity: 0.6; transform-origin: 420.904px 48.2179px;" class="animable" id="elkt2rdcv4b0j"></path></g><g id="elk4h7oxviihn"><path d="M86.23,454.8H85.8a7.94,7.94,0,1,1,.43,0Zm0-15.16A7.26,7.26,0,0,0,79,446.5a7.24,7.24,0,1,0,7.61-6.85Z" style="fill: rgb(255, 255, 255); opacity: 0.4; transform-origin: 86.015px 446.861px;" class="animable" id="el1yte8qsr6tk"></path></g><g id="eldz1ibx48z5g"><path d="M88.44,447a2.22,2.22,0,1,1-2.1-2.34A2.23,2.23,0,0,1,88.44,447Z" style="fill: rgb(255, 255, 255); opacity: 0.6; transform-origin: 86.2232px 446.877px;" class="animable" id="elqk78qevlw2"></path></g><g id="el5k04icx132a"><path d="M49,413.3l-2.51.87-.7,2.55a.3.3,0,0,1-.53.1l-1.6-2.11-2.65.12a.31.31,0,0,1-.26-.48l1.51-2.17-.93-2.48a.31.31,0,0,1,.37-.4l2.54.77,2.07-1.65a.3.3,0,0,1,.49.23l.05,2.65,2.22,1.46A.31.31,0,0,1,49,413.3Z" style="fill: rgb(255, 255, 255); opacity: 0.4; transform-origin: 44.9486px 412.646px;" class="animable" id="el0iqoc0o1yf9w"></path></g><g id="eltbw1qntauu"><path d="M69.57,448.89a1.24,1.24,0,1,1-.69,1.61A1.23,1.23,0,0,1,69.57,448.89Z" style="fill: rgb(255, 255, 255); opacity: 0.4; transform-origin: 70.0303px 450.041px;" class="animable" id="elotly0ythh4i"></path></g><g id="eldvv7zjbewn"><path d="M454.82,69.92a1.18,1.18,0,1,1,1.3-1A1.17,1.17,0,0,1,454.82,69.92Z" style="fill: rgb(255, 255, 255); opacity: 0.4; transform-origin: 454.953px 68.748px;" class="animable" id="el9108v0lorpj"></path></g><g id="el45dzpay5g23"><path d="M465.15,84.16l-2.89,2.36.3,3.72a.43.43,0,0,1-.66.39l-3.13-2-3.45,1.44a.43.43,0,0,1-.58-.51l1-3.61-2.43-2.83a.42.42,0,0,1,.3-.7l3.72-.21L459.24,79a.43.43,0,0,1,.76.07l1.35,3.48,3.63.86A.43.43,0,0,1,465.15,84.16Z" style="fill: rgb(255, 255, 255); opacity: 0.4; transform-origin: 459.255px 84.7498px;" class="animable" id="elah0y97zm7jt"></path></g></g><g id="freepik--Earth--inject-4" class="animable" style="transform-origin: 207.855px 265.581px;"><g id="freepik--earth--inject-4" class="animable" style="transform-origin: 207.855px 265.581px;"><path d="M124.88,313a95.53,95.53,0,1,0-3.33-88.47A95.54,95.54,0,0,0,124.88,313Z" style="fill: #7E57C2; transform-origin: 207.811px 265.581px;" id="elh1mkcz60qah" class="animable"></path><g id="elss2g6j28krs"><path d="M124.88,313a95.53,95.53,0,1,0-3.33-88.47A95.54,95.54,0,0,0,124.88,313Z" style="fill: rgb(255, 255, 255); opacity: 0.4; transform-origin: 207.811px 265.581px;" class="animable" id="el90gcpzuh48h"></path></g><path d="M149,191.05a2.85,2.85,0,0,0,1.69.65,4.93,4.93,0,0,0,1-.13c.42-.09,1.43-.66,1.69-.52s-.3,1-.72,1.52a8.84,8.84,0,0,1-2.48,1.87,4,4,0,0,1-3.1.47c-.3-.08-1.51-.5-2-.06s-.41.68-.19.86a3,3,0,0,0,1.33.34,1,1,0,0,1,.55.2c.44.4-.64,1.65-.32,2.12.2.28.75.22,1.15.24a7.94,7.94,0,0,0,1.83,0,5.09,5.09,0,0,0,1.17-.37,18.87,18.87,0,0,1,2.89-.7,1.57,1.57,0,0,0,1.42-1.49c0-.69-.55-.72-1.3-.56-1,.21-2.16.63-2.45.67s-.43,0-.31-.18c.23-.38,1.43-.66,1.66-.74l1.45-.52c.8-.29,1.7-.52,2.08-.63a5.42,5.42,0,0,0,.72-.29,4.3,4.3,0,0,0,1-.67c.57-.63.19-1,.72-1.54a5.24,5.24,0,0,1,1.5-.92,14.54,14.54,0,0,0,1.57-.87c1-.69,1-1.59,1.71-2.46a5.92,5.92,0,0,1,1.43-1.22c.76-.49,1.8-1,2.38-1.42l1-.7a6.31,6.31,0,0,0,1.16-1c.24-.24.45-.55.67-.79a2.13,2.13,0,0,1,.72-.53,4.71,4.71,0,0,0,1.92-1.83c.55-1-.29-.82-.45-1-.28-.4-.8-.39-1.37-.33-1.25.12-2.78.65-4.27.95q-3.06,1.47-6,3.17c-1.71,1-3.37,2-5,3.08a2.76,2.76,0,0,0,1,.43c.83.29,2.31-.54,3.46-.84.51-.13,2.09-.72,2.15-.24.1.73-1.67,1.49-2,1.64a2.23,2.23,0,0,0-.85.54c-.47.54-1.22,1.24-1.66.9a2.38,2.38,0,0,0-.84-.56.62.62,0,0,0-.67.3c-.36.5-1.38,1.28-1.5.67-.07-.36,0-.86-.28-1s-.55-.14-.74-.3a1,1,0,0,1-.1-.11c-1.62,1.12-3.2,2.29-4.73,3.49A1.89,1.89,0,0,0,149,191.05Z" style="fill: #7E57C2; transform-origin: 158.721px 188.576px;" id="elwhj8t145xcg" class="animable"></path><path d="M251.84,199.31,252,199a4.66,4.66,0,0,1,2-1.45,9.86,9.86,0,0,1,2.39-.6,4.16,4.16,0,0,0,2.36-.8.31.31,0,0,0,.12-.18c0-.17-.19-.27-.36-.3a3.61,3.61,0,0,1-1.23-.39.88.88,0,0,0-.87-.21c-.52.09-1,.17-1.56.21-1.05.09-2.11.09-3.16.21a3.69,3.69,0,0,0-1.47.39,3,3,0,0,0-1.16,1.54,17.87,17.87,0,0,0-.5,1.91,2.1,2.1,0,0,1-.4.9,3.08,3.08,0,0,1-1.08.67,1.47,1.47,0,0,0-.85.91,1.33,1.33,0,0,0,.2.84,6.63,6.63,0,0,0,1.67,1.87,3.59,3.59,0,0,0,1.28.77,1.31,1.31,0,0,0,.59,0c.81-.17.86-1.1.86-1.75a10.53,10.53,0,0,1,.38-2.74A5.83,5.83,0,0,1,251.84,199.31Z" style="fill: #7E57C2; transform-origin: 252.547px 200.178px;" id="elnjx7qqhbzrm" class="animable"></path><path d="M211.58,184.29l-.11,0a1.46,1.46,0,0,0-1.35,0A1.26,1.26,0,0,0,210,186a4,4,0,0,0,1.64,1,3.22,3.22,0,0,1,1.57,1.1c.26.42.32.94.6,1.36a1.61,1.61,0,0,0,1.6.68,1.63,1.63,0,0,0,1.24-1.22.8.8,0,0,1,.15-.43c.19-.21.54-.09.79.06a8.08,8.08,0,0,0,2,1.07c.6.16,2.19-.14,1.87-1.1-.16-.46-1.66-.73-2.12-1.14a4.51,4.51,0,0,1-.9-1.09c-.46-.8.11-.91.58-.88a6,6,0,0,0,1.12,0,2.38,2.38,0,0,0,1.48-.72,1.1,1.1,0,0,0,0-.87.56.56,0,0,1-.05-.08,1.6,1.6,0,0,0-1.46-.55c-.6,0-1.25,0-1.87-.06a4,4,0,0,1-.83-.08,1.76,1.76,0,0,0-.62-.15,8.33,8.33,0,0,0-2.65.84,5,5,0,0,0-.16.55,1,1,0,0,1-1.2.51A6.14,6.14,0,0,1,211.58,184.29Z" style="fill: #7E57C2; transform-origin: 215.715px 186.531px;" id="el3jpxd13p715" class="animable"></path><path d="M208.56,228.88c-.42-.78-1.51-1.25-1.28-2.39a10.44,10.44,0,0,1,.43-1.18.31.31,0,0,0,0-.23c0-.1-.16-.13-.26-.16a1.13,1.13,0,0,1-.68-.57c-.14-.28-.17-.63-.41-.84a1.23,1.23,0,0,0-1.11-.06,1.15,1.15,0,0,0-.62.34,2.94,2.94,0,0,0-.23.69c-.13.36-.48.65-.47,1a2.66,2.66,0,0,0,.11.47,3.35,3.35,0,0,1,0,.71,2.42,2.42,0,0,0,1.13,2.1c.21.12.45.2.66.33a1.35,1.35,0,0,1,0,2.17,2.11,2.11,0,0,0-.33.18.84.84,0,0,0-.27.44,9.39,9.39,0,0,1-.42,1.85c-.14.23-.35.48-.28.74a.61.61,0,0,0,.19.26,1.85,1.85,0,0,0,1.32.48,5.25,5.25,0,0,0,3.81-1.34c.35-.41,1.07-1.43.51-1.89-.21-.18-.49-.2-.7-.43a3.29,3.29,0,0,1-.5-1A14.49,14.49,0,0,0,208.56,228.88Z" style="fill: #7E57C2; transform-origin: 207.248px 229.282px;" id="elinh0ygeqt3i" class="animable"></path><path d="M113.65,261.64c.36.43,1,1.88,1.5,1.89.92,0,0-1.9-.23-2.18s-1.64-3.21-1.61-3.23a.37.37,0,0,0,.18-.35c0-.12-.49-.5-.8-.92-.11,1.17-.2,2.34-.26,3.51C112.78,260.83,113.37,261.31,113.65,261.64Z" style="fill: #7E57C2; transform-origin: 113.99px 260.19px;" id="elkce3yv2uach" class="animable"></path><path d="M245.28,317a31.66,31.66,0,0,0,2-6.65,12.34,12.34,0,0,0,.18-1.36,4.13,4.13,0,0,0-.19-1.83,3.08,3.08,0,0,1-.26-.42,3.35,3.35,0,0,1-.14-.38,2.14,2.14,0,0,0-.2-.43c-.15-.19-.8,0-1,.66-.12.41-.18.87-.24,1.18-.32,1.67-1.74,2.37-2.64,3.54-1.25,1.64-1,3.47-1.22,5.27-.12,1.18-.81,2.73-.47,3.8C242.22,323.88,244.6,318.65,245.28,317Z" style="fill: #7E57C2; transform-origin: 244.249px 313.711px;" id="elt95t6t16tc" class="animable"></path><path d="M296,299.88a1.14,1.14,0,0,0-.82-.68,14.83,14.83,0,0,0-2.41-.16c-1.06-.05-2.71-.32-2.85-1.64-.06-.52.14-1,.13-1.56a3.94,3.94,0,0,0-.63-1.73c-.31-.58-.63-1.15-.94-1.72a1.07,1.07,0,0,1-.19-.87,1.26,1.26,0,0,1,.44-.45,3,3,0,0,0,1.15-1.88c.26-1.66-1.47-3.35-2.06-4.82a3.65,3.65,0,0,1-.2-.64,4.71,4.71,0,0,1,.67-2.94,2.76,2.76,0,0,1,1.82,1.28c.27.45.95,1.55,1.57,1.56.46,0,1.55-1,1.89-1.28a4.73,4.73,0,0,0,1.41-2.27,4.28,4.28,0,0,0,.1-1.24,6.7,6.7,0,0,0-.74-2.49,6.82,6.82,0,0,0-.72-1.24,1.36,1.36,0,0,1-.47-1.12c.05-1.24,1.2-2.58,2.25-2.13a1.71,1.71,0,0,0,2-.23,8.29,8.29,0,0,1,2.25-1.62,9.85,9.85,0,0,0,3.49-1.66l.25-.24a94.64,94.64,0,0,0-.41-11.89c0-.42-.11-1.12-.18-1.72a95.21,95.21,0,0,0-12-36.33,96.42,96.42,0,0,0-11.93-16.52h-.61a14.17,14.17,0,0,0-2.76,0,2.5,2.5,0,0,0-1.65,1.33c-.44.78-1.32.81-1.76,1.56a3.36,3.36,0,0,0-.15,1.92c0,.66-.19,1.47-.83,1.61s-1.41-.65-2.12-.45c-.4.12-.65.53-1,.71a2,2,0,0,1-1.25,0,3.78,3.78,0,0,1-3.08-2.25c-.44-.75-1.22-1.51-2.06-1.29a2.27,2.27,0,0,0-1.13,1l-1.08,1.39a.92.92,0,0,0-.27.63.93.93,0,0,0,.23.48l.93,1.2c.35.47.69,1.18.24,1.57a1,1,0,0,1-.47.19,3.12,3.12,0,0,1-2.87-1c-.52-.62-1-1.54-1.77-1.51s-1.18,1-1.71,1.57c-1.09,1.24-3,1.07-4.63.6a3.91,3.91,0,0,0-1.21-.22,5.25,5.25,0,0,0-1.58.6,1.4,1.4,0,0,1-1.44,0c-.41-.3-.37-1.2-.87-1.31a.74.74,0,0,0-.43.08c-.71.26-1.3.22-1.79.9a7.84,7.84,0,0,0-.72,1.45,9.92,9.92,0,0,1-.94,1.64,2.45,2.45,0,0,1-1.39,1.11,2,2,0,0,1-1.56-.43c-.64-.46-2.24-1.43-1.85-2.38a1.78,1.78,0,0,1,1.24-.89,3.17,3.17,0,0,0,1.41-.66,2.38,2.38,0,0,0,.5-1,1.48,1.48,0,0,0,.07-.66c-.29-1.32-3.22-1.91-4.22-2.37-1.95-.9-2.87-3.23-4.73-4.31a4.55,4.55,0,0,0-5.29.6,3.63,3.63,0,0,1-1,.84,6.46,6.46,0,0,1-1.53.15,2.84,2.84,0,0,0-2.06,1.71c-.65,1.39-.52,3-1.25,4.4-.22.41-.76,1.35-1.18,2.13-.25.47-.52,1-.78,1.45-.73,1.4-1.57,2.82-2.44,4.31-.62,1.06-2,3-.65,4a5.11,5.11,0,0,0,1.76.65,5.9,5.9,0,0,1,2.57,1.32,20.24,20.24,0,0,1,1.38,1.66,2.87,2.87,0,0,0,1.79,1.1c1.2.12,2.72-1.58,3-2.67.42-1.72-1-3.29-1.3-4.91a3.4,3.4,0,0,1,0-1.31,6.25,6.25,0,0,1,.37-1c.24-.51,1.05-1.42,1.65-2.28a6,6,0,0,0,.87-1.81,3,3,0,0,1,.36-.87c1-1.5,2.64.93,2.54,1.93a5.64,5.64,0,0,1-1,2.33,4.65,4.65,0,0,0-.93,2.36,3.23,3.23,0,0,0,1.63,2.68,22.83,22.83,0,0,1,2,1.12,1.8,1.8,0,0,1,.73,2c-.5,1.08-2.18.88-3,1.69s-.47,2.64-1.15,3.8-2.22,1.38-3.56,1.42c-1.55.06-3.28,0-4.37-1.11-.63-.64-1-1.62-1.91-1.93a1.44,1.44,0,0,0-1.48.32c-.64.69-.26,1.85-.67,2.71s-1.68,1.21-2.31,2-.49,2.16-1,3.16a2.65,2.65,0,0,1-2.15,1.52,8.12,8.12,0,0,1-1.83-.18,2.62,2.62,0,0,0-1.79.26,1.16,1.16,0,0,0-.37,1.6c.42.5,1.22.39,1.75.75.73.49.66,1.58.43,2.43a3,3,0,0,1-1.34,2c-.8.39-1.76.11-2.65.21-3.13.38-3.34,5.53-1,7a1.86,1.86,0,0,0,1.84.1,4.39,4.39,0,0,1,.47-.27,1.42,1.42,0,0,1,1.09.17c2.32,1.14,2.7-1.27,3.08-3.1.14-.68.3-1.49.94-1.73.45-.18,1,0,1.42-.19a1.52,1.52,0,0,0,.68-1.05,3.14,3.14,0,0,1,.43-1.2c.57-.73,1.17,0,1.84,0,.84.06,1.4-.74,2.2-.7a4,4,0,0,1,2.49,1.54c.67.72,1.35,1.42,2,2.15.41.45,1.24.75,1.48,1.32s-.05.93,0,1.39a.52.52,0,0,0,.16.31c.35.27.63-.23.79-.46a2.54,2.54,0,0,1,.8-.73c1.21-.87-1.06-2.08-1.55-2.42a7.36,7.36,0,0,1-1.8-1.58c-.43-.58-.64-1.49-.1-2a1.53,1.53,0,0,1,1.58-.08,1.07,1.07,0,0,1,.37.22c.26.26.25.68.32,1a2.2,2.2,0,0,0,.74,1.29c.52.44,1.29.69,1.47,1.35a3.9,3.9,0,0,1,0,1.13,1.91,1.91,0,0,0,.6,1.38c.22.2.48.35.68.56a3.92,3.92,0,0,1,.74,1.72c.06.21.25.47.44.35a.34.34,0,0,0,.09-.12c.44-.71,1.21-1.54,1.14-2.45,0-.1,0-.2,0-.3a.78.78,0,0,1,.63-.64,1.77,1.77,0,0,1,1,.1c.34.21.21.5.28.86.11.56.4,1,.52,1.61.35,1.7,2.76,2.2,4.25,2.06a4.9,4.9,0,0,1,2,0,2.44,2.44,0,0,1,1.33,2.35c0,1-.29,1.9-.31,2.85a4.48,4.48,0,0,1-.05,1,1,1,0,0,1-.52.76,6,6,0,0,1-2.29.08,21.62,21.62,0,0,1-2.6-.79c-1.16-.19-2.41.46-3.47,0s-1.46-1.67-2.48-1.76a4,4,0,0,0-1.77.61,4.64,4.64,0,0,1-3.28,0,14,14,0,0,1-2.93-1.61,2.24,2.24,0,0,1-.89-.89,3.92,3.92,0,0,1-.13-1.09,2.81,2.81,0,0,0-1.86-2.09,8.13,8.13,0,0,0-2.91-.38l-3.19,0a2.14,2.14,0,0,0-.84.1,5,5,0,0,0-.78.54c-1.37.93-3.28-.13-4.87.34a5.26,5.26,0,0,0-2.33,1.89,7.49,7.49,0,0,0-1.49,2.67,6.3,6.3,0,0,1-1.24,2.56c-.56.62-1.23,1.13-1.81,1.74-1.8,1.91-2.36,4.64-2.86,7.22a6.06,6.06,0,0,0-.14,2c.08.53.31,1,.38,1.55.16,1.27-.63,2.53-.39,3.78a6.38,6.38,0,0,0,1.54,2.47c1.14,1.49,1.81,3.32,3.12,4.65a10.26,10.26,0,0,0,2.4,1.73,5.58,5.58,0,0,0,5.06.64,8.52,8.52,0,0,0,2.34-.46c.38-.2.76-.43,1.1-.62a2.34,2.34,0,0,1,3.42.92,10.41,10.41,0,0,0,1.06,2.29c.7.84,1.91,1.12,2.54,2a4.83,4.83,0,0,1,.45,3,17.87,17.87,0,0,0,.59,5.2,23.49,23.49,0,0,1,1.21,4.91c.13,2.51-1.09,4.89-1.35,7.4a17.1,17.1,0,0,0,.57,5.55c.83,3.59,2,7.09,3.1,10.59a7.31,7.31,0,0,0,1,2.24,2.54,2.54,0,0,0,2.09,1.12,3.52,3.52,0,0,0,1.62-.65c3.31-2.06,6.21-4.43,7.56-8.21a29.7,29.7,0,0,1,1.58-4.22,12.6,12.6,0,0,1,2.72-3.36,14.61,14.61,0,0,0,2.66-2.67,8.5,8.5,0,0,0,1-2.23,7.11,7.11,0,0,0,.36-1.88,11.24,11.24,0,0,0-.28-2.22c-.67-3.77-.24-7.92,2-11,.74-1,1.73-1.82,2.43-2.85.51-.76.72-1.6,1.29-2.34a17.92,17.92,0,0,0,3.37-6.18c.37-1.44-.56-2.39-1.49-2.06a17.55,17.55,0,0,1-1.7.53c-.53.12-1.07.16-1.59.25a2.6,2.6,0,0,1-1.51-.42,1.52,1.52,0,0,1-.93-1.12c-.17-.57-.08-1.14-.2-1.71A2.64,2.64,0,0,0,242,277a10.42,10.42,0,0,1-1.89-2.88,12.42,12.42,0,0,1-.75-3.49,5.82,5.82,0,0,0-.89-2.19,14.83,14.83,0,0,1-1-2.2c-.29-.75-1.35-3.37-.3-3.87.6-.29,2.31,2.28,2.66,2.76.89,1.21,1.67,2.51,2.45,3.8a17.54,17.54,0,0,1,2.09,4.34,22.36,22.36,0,0,0,.75,2.81,2.76,2.76,0,0,0,2.1,1.8,8.62,8.62,0,0,0,4.07-1.23,32.53,32.53,0,0,0,4.45-2.88,6.29,6.29,0,0,0,1.88-2.86,1.32,1.32,0,0,0-.53-1.21,3.14,3.14,0,0,1-1-1.48c-.25-.68-1.13-.87-1.85-.82a4.36,4.36,0,0,1-2.16-.08,3.1,3.1,0,0,1-1.25-1.44c-.49-.87-1.77-2.33-1.79-3.34a.56.56,0,0,1,.46-.6.86.86,0,0,1,.6.36,6.45,6.45,0,0,0,2.74,1.86,19.45,19.45,0,0,1,3.17,1c.49.25.93.59,1.41.86a5.45,5.45,0,0,0,2.9.68,9.36,9.36,0,0,1,1.9-.08,4.3,4.3,0,0,1,2.79,2.44,10.66,10.66,0,0,0,2.07,3.21,8.37,8.37,0,0,1,1.1.94,4.19,4.19,0,0,1,.7,2.15,37.93,37.93,0,0,0,1.05,4.93c.27,1,.58,3.55,2.1,3.16a2.34,2.34,0,0,0,1.19-.92c1.28-1.68,1.64-3.94,2.95-5.6a12.1,12.1,0,0,1,2.08-1.9l2.51-2a1.63,1.63,0,0,1,1.07-.47c.72.07,1,1,1,1.71s0,1.6.6,2,1.78,0,2.17.67c.22.36.06.82.12,1.24.1.68.73,1.14,1,1.76.57,1.25-.3,2.53-.31,3.79s1,2.49,1.43,3.61a2.07,2.07,0,0,1,.19,1,.74.74,0,0,1-.64.67c-.55,0-.81-.74-1.33-.93s-1.27.54-1.29,1.24c0,1.37,1.08,2.45,1.8,3.62a6.77,6.77,0,0,1,1,2.79,3.88,3.88,0,0,0,.63,2.25,4.52,4.52,0,0,0,.71.53c.66.47,1,1.45,1.74,1.77s1.85-.26,2.54.4c.73.83,1.71.59,2.65.55a4.13,4.13,0,0,0,.75-.1c.1-.23.19-.47.28-.71C296.45,300.3,296.11,300.19,296,299.88Zm-54.72-51.32a10.29,10.29,0,0,1-2.49-.8c-1.16-.45-3-.1-4.21.09a3.83,3.83,0,0,1-1.73,0c-1.16-.4-.33-3,.22-4.28a5.23,5.23,0,0,1,1.1-1.82c.93-.82,2.71.4,2.39.71s.1.66.16,1,.37.68.72.38,0-1.82,1.1-2.33a3.17,3.17,0,0,1,.41-.17c1.12-.39,1.64.25,1.41,1.65a2.87,2.87,0,0,0,0,1c.29,1.44,1.71,1.68,1.71,1.84s.54.38.94.92S242.47,248.68,241.27,248.56Zm12.45,4.88c-.28,1.06-1.54,1.23-2.71.59s-1.16-2.62-1.08-3.88-1.88-2.56-2-4c-.28-2.56,1.94-4.4,3.5-4.2,1.2.16.3,1.9-.33,3-.23.41,0,.79.33,1.34a14.21,14.21,0,0,0,2.31,2.26c.49.55-.17,1.15-.82,1.32S254.06,252.1,253.72,253.44Z" style="fill: #7E57C2; transform-origin: 248.586px 266.116px;" id="el68rhfet5e2u" class="animable"></path><path d="M170.92,319.22a18.8,18.8,0,0,1,1.94-1,7,7,0,0,0,3.37-4.13c.87-2.91-1.08-5.24-.69-8.11.31-2.32,2.46-3.66,2.86-6.09.26-1.62-1.16-2.81-2.33-3.63-1.47-1-2.45-2.47-4.08-3.33a21,21,0,0,1-3.56-2c-2.31-1.86-3.38-5.22-6.15-6.29-1.36-.53-2.91-.39-4.24-1a9.09,9.09,0,0,1-3-2.57,17.55,17.55,0,0,0-4.39-3.86,7,7,0,0,0-5.65-.7c-1.24.45-1.79,1.79-2.91,2.34a2,2,0,0,1-.84.17,4.39,4.39,0,0,1-4-1.83c-.54-.86-1-1.1-.89-2.16.18-2.17-.22-2.67-2.23-3.31-1.17-.38-2.54-2-1-3,.39-.23.94-.31,1.11-.74.25-.61-.54-1.1-1.17-1.3-.85-.27-1.91-.49-2.52.16a10.92,10.92,0,0,0-.63,1c-.72.94-2.32.68-3.09-.22a5.1,5.1,0,0,1-.88-3.36,20.19,20.19,0,0,1,.38-3.56,2.68,2.68,0,0,1,1.3-2.12c.93-.37,2.07.31,3-.15.3-.16.53-.43.82-.62,1.49-1,3.69.44,4.73,1.56.51.56,1.63,3.91,2.45,1.51.29-.83,0-1.77.2-2.62a5.51,5.51,0,0,1,1.92-3.22,6.08,6.08,0,0,0,1.38-1.13c1-1.45-.52-3.68.5-5.12.89-1.27,3-.86,4.14-1.95.9-.89.88-2.54,2-3.14.95-.52,2.1,0,3.09-.39a18.8,18.8,0,0,0,2.89-1.56A2,2,0,0,0,156,240a.52.52,0,0,0-.12-.41.55.55,0,0,0-.47-.05,3,3,0,0,1-1,.11.92.92,0,0,1-.79-.52,2.58,2.58,0,0,1,0-.88,1.5,1.5,0,0,0-.39-.91c-.25-.27-.62-.45-.81-.77-.81-1.39,2-2.21,2.89-2.29,1.91-.17,2.29,1.27,2.9,2.65.48,1.07,1.87,1.3,3,1.36a1.24,1.24,0,0,0,.61-.07,1.13,1.13,0,0,0,.44-.5c.85-1.7.19-3.79-.85-5.38s-2.44-3-3.25-4.68c-.67-1.43-1-3.21-2.4-4-1.12-.62-3.17-.21-3.51-1.63-.14-.55.24-1.16-.12-1.7s-.92-.29-1.05-1a1.91,1.91,0,0,0-2.3-1.42c-1,.12-2.2,1.83-2.25,2.9-.07,1.42-1,2.36-.79,3.82a2.38,2.38,0,0,1-.3,1.93c-.43.7-1.17.83-1.6,1.4a.86.86,0,0,0-.14.53c-.08,1.12-.31,3.28-1.63,3.71s-1.5-.91-1.48-1.84c.07-3.3-2.25-3-4.21-4.9a3.32,3.32,0,0,1-.85-3.31c.73-2.34,3.81-3.25,4.66-5.55.42-1.11.26-2.46,1-3.39.89-1.1,2.46-1,3.67-1.53a6.65,6.65,0,0,0,3-2.21,4,4,0,0,0,.57-1.59c-.05-.31-.44-.3-.35-.76.23-1.21,2.5-2,3.61-1.52s.33,1.17.2,1.92c-.2,1.15.86,2.25.44,3.39a2.63,2.63,0,0,1-.73.93L150.31,213a1.66,1.66,0,0,0-.71,1.23c.07.88,1.86,1.43,2.39,2.22.78,1.18,2,2.47,2.69,2.52,1,.07.63-2.17,1.15-2.31a2.5,2.5,0,0,1,.92-.15c.42,0,.58-3.35.64-3.59a.63.63,0,0,1,.23-.38.59.59,0,0,1,.37,0c.77.14,1.53.56,2.28.35,1-.28,1.41-1.62,1.17-2.67a6.81,6.81,0,0,0-1.89-3.07,3.13,3.13,0,0,1-1-1.49c-.22-1.26,0-1.91-1.08-2.82-.5-.42-1.76-.6-2.11-1.38s-.52-1.77-1.2-1.78a4.74,4.74,0,0,0-.48.26.65.65,0,0,1-.46,0c-.27-.1-.41-.36-.64-.52a1.71,1.71,0,0,0-1.79,0,8,8,0,0,1-.83.37,7.39,7.39,0,0,1-1.47.14,7,7,0,0,0-2.15,1.14,5.73,5.73,0,0,0-1.2,1.15c-.52.72-1,1.9-.51,2.08s1.34-.16,1.84.21.49,1.33.28,1.92c-.26.74-.87,1.52-1.65,1.41s-1.19-1.08-1.91-1.48a3,3,0,0,1-.66-.36c-.45-.43-.23-1.17,0-1.73s.44-1,.67-1.52a1.75,1.75,0,0,0,.21-1.17c-.62-2-2.58,2.27-2.82,2.56-.54.66-1.22,1.11-1.72,1.77a13.44,13.44,0,0,0-.89,1.9c-.36.62-.48.47-.9.67-.93.45-1,2-1.95,2.56a2.2,2.2,0,0,1-.94.25,3,3,0,0,1-1.53-.14c-.14-.05-.33-.12-.18-.42s.65-.51.93-.67a4.44,4.44,0,0,0,1.85-2.77c0-.52-.46-.54-.69-.79a2.06,2.06,0,0,1-.19-2.08q-2.44,2.94-4.63,6.05a.44.44,0,0,1,.37.33c.07.26-.09.54-.33.91a7.75,7.75,0,0,0-.4.72c-.19.4-1,1.88-1.45,1.5a2,2,0,0,1-.3-.34,93.07,93.07,0,0,0-6.15,11,96.46,96.46,0,0,0-8.77,31.28.8.8,0,0,1,.76.3c.78.83,1.06,2.85,1.84,3.69a15,15,0,0,1,3.4,5c1,3.07,2.9,5.84,6.37,6.27a5.94,5.94,0,0,1,2.27.47,14.24,14.24,0,0,1,1.46,1.35,8.91,8.91,0,0,0,2.51,1.06c2.41.92,3.34,3.82,5.52,5.1,1.05.62,2,.65,2.82,1.62a4.36,4.36,0,0,1,1.25,3.46c-.25,1.52-1.54,2.62-2.35,3.93a5.31,5.31,0,0,0-.54,4.73c.86,2.09,3.3,3.37,3.68,5.59.19,1.13-.21,2.3-.06,3.44a5.44,5.44,0,0,0,2.5,3.55c1.22.86,2.6,1.45,3.82,2.31,2,1.38,4,3.78,4.19,6.26.24,2.81,1.33,5.46,2,8.21,1.17,4.73,2,9.72,4.17,14.08a20.87,20.87,0,0,0,3,4.71c1.08,1.2,2.46.78,2.65-.91.21-1.88-.25-3.9.56-5.62.58-1.2,1.76-2.26,1.55-3.58a7.69,7.69,0,0,1-.41-1.67c.06-.92,1.06-1.44,1.81-2a5.6,5.6,0,0,0,2.29-4.35,6.22,6.22,0,0,1,.23-2.66A2.43,2.43,0,0,1,170.92,319.22Zm-38.55-80.11a6.18,6.18,0,0,1,1.58-1.28c.5-.36,1.56-1.19,2.22-.73a3.45,3.45,0,0,1,.9,1.46c.46,1.07,1.93,1.61,2.75,2.13.53.34.11.82-.16,1.17a1.64,1.64,0,0,0-.37.67,2.3,2.3,0,0,1-.34.9.81.81,0,0,1-.9.28,1,1,0,0,1-.47-.85c0-.32-.05-.7-.33-.84a.58.58,0,0,0-.6.13,1.91,1.91,0,0,0-.36.53,7.48,7.48,0,0,1-.57.89,2,2,0,0,1-.73.67,1.17,1.17,0,0,1-1.55-.87c-.09-.7.47-1.46.12-2.07s-1.15-.63-1.36-1.21A1,1,0,0,1,132.37,239.11Z" style="fill: #7E57C2; transform-origin: 145.576px 270.426px;" id="elq4nd87crb4" class="animable"></path><path d="M141.22,198.23c.12.53.85.16,1,0s1.08-1.44.82-2c-.12-.28-.43-.26-.77-.11-.44.41-.86.83-1.29,1.25A3.51,3.51,0,0,0,141.22,198.23Z" style="fill: #7E57C2; transform-origin: 142.033px 197.259px;" id="elwwdy5eb2y" class="animable"></path><path d="M200.65,233.23c.26,1,1.31.44,1.87.31a2.61,2.61,0,0,0,1.58-1.63,2.49,2.49,0,0,0-.13-1.72c-.24-.5-.91-1.39-1.45-1.07-.21.13-.17.42-.35.55s-.72,0-1,0c-.81.15-.23,1-.14,1.53a1.71,1.71,0,0,1-.12,1C200.79,232.54,200.54,232.87,200.65,233.23Z" style="fill: #7E57C2; transform-origin: 202.409px 231.433px;" id="eljai85dar3h" class="animable"></path><path d="M217.67,248.46c.56-1.21-.22-4.93-.79-3.64a4.55,4.55,0,0,0-.25.74C216.26,247,217.11,249.66,217.67,248.46Z" style="fill: #7E57C2; transform-origin: 217.201px 246.657px;" id="elhru6hs3936f" class="animable"></path><path d="M300.44,288.11c.58-.81.75-2-.16-2.17s-1.41.74-2.14,1.44a19.1,19.1,0,0,1-2.84,2.17c-.61.39-1.56-.13-1.84.94a5,5,0,0,0,.18,2.85,4.9,4.9,0,0,0,.8,1.9,2.33,2.33,0,0,0,3.43.42,2.18,2.18,0,0,0,.5-.59c.23-.36.52-1.11.82-1.56.39-1.25.73-2.5,1.06-3.76A1.53,1.53,0,0,1,300.44,288.11Z" style="fill: #7E57C2; transform-origin: 297.126px 291.074px;" id="eltashukorfz" class="animable"></path><path d="M143.31,267.66a5.71,5.71,0,0,1-2.49-1c-.73-.49-1.59-1.08-2.41-.78-.61.23.1.94.48,1.25a8.87,8.87,0,0,0,.89.62c.5.32,1.17.91,1.56,1.15a1.2,1.2,0,0,0,.74.21c1,0,2.13-.62,3.14.22.24.19.62.76.95.74h.06c.34-.12.3-.73.17-1.06C145.88,267.7,144.21,267.77,143.31,267.66Z" style="fill: #7E57C2; transform-origin: 142.333px 267.935px;" id="elc5hmhgh318m" class="animable"></path><path d="M221.56,252.16a1,1,0,0,0-.57-1.34c-.32-.17-.39.21-.43.64S221.18,253,221.56,252.16Z" style="fill: #7E57C2; transform-origin: 221.101px 251.622px;" id="el14zfthmvj17" class="animable"></path><path d="M212.28,248.38c.44-.42.37-.88-.88-.89-.19,0-.51.3-.72.65C210.38,248.65,211.53,249.08,212.28,248.38Z" style="fill: #7E57C2; transform-origin: 211.579px 248.118px;" id="el78y5x7k67e" class="animable"></path><path d="M197.33,212.68a2.62,2.62,0,0,0-1.22-3.24,1.14,1.14,0,0,0-1.23.1c-.49.42-.44,1.29-1,1.64a1.12,1.12,0,0,1-1,0,1.9,1.9,0,0,1-.9-.68,1.52,1.52,0,0,0-.44-.5c-1.19-.65-.84,2.57-.63,3C192.49,216.13,196.23,214.62,197.33,212.68Z" style="fill: #7E57C2; transform-origin: 194.097px 212.053px;" id="elg44mnb4eeje" class="animable"></path><path d="M142.79,214.54c-.61,1.2-.8,2.34-.25,2.64s2.06-.47,3.1-.69c1.49-.31.35-1.07-.57-2.11C144.47,213.69,143.4,213.33,142.79,214.54Z" style="fill: #7E57C2; transform-origin: 144.287px 215.497px;" id="elneisiotkpsn" class="animable"></path><path d="M190.22,198.56a11.78,11.78,0,0,0,.89-.84,7.69,7.69,0,0,0,2-6.28c-.27-1.82-1.2-3.62-.79-5.42a17.18,17.18,0,0,1,1.41-3.86c.27-.49,1.67-1.37,1.35-2a.8.8,0,0,0-.48-.35,4.51,4.51,0,0,0-1.22-.26,2.24,2.24,0,0,0-.7.08,2.19,2.19,0,0,0-.87.68c-.45.49-1,1-1.17.86s-.08-.24-.21-.47c-.35-.64-.42-.16-.91.07-.25.12-1.06.15-1.07-.58s.8-1.44,1-1.81a1.78,1.78,0,0,1,.71-.67c.41-.2.43-1.18-.16-1.77a4.24,4.24,0,0,0-2-1,6.38,6.38,0,0,0-4.23.29,8.94,8.94,0,0,0-2.19,1.18c-1,.72-2,2.42-3.11,3.23a1.56,1.56,0,0,1-1.72.16c-.95-.34-2.18-.75-4,1-1.14,1.07-.42,1.2-.94,2.22s-1.72.73-2.18.9a2.84,2.84,0,0,0-.68.36A3.13,3.13,0,0,0,168,186c0,1.9-4.58,2.54-5,4.81-.71,3.56,4.26,3,3.91,6.34-.13,1.25-1.06,2.61-.32,3.63a6.39,6.39,0,0,0,1.17.95c1.24,1.07,1,3.06.4,4.59-1.2,3.2-2,6.72-.87,10.07,1.1,3.11,3.88,2.21,5.83.25l5.47-5.49a11.76,11.76,0,0,1,2.71-2.23,23.62,23.62,0,0,0,3.38-1.57c2.11-1.6,2.1-4.83,3.7-6.95A12.46,12.46,0,0,1,190.22,198.56Z" style="fill: #7E57C2; transform-origin: 179.029px 196.566px;" id="elkf7fq5z5tw" class="animable"></path><path d="M140.65,201.58c.43-.31,1-.68.78-.91-.05-.07-.18-.08-.24-.15s-.7-.13-1.82.38-1.47,1.51-2.26,1.8-.29,1.76.35,2.18c1,.63,2.29-.41,3.07-1.43C141.51,202.16,140,202,140.65,201.58Z" style="fill: #7E57C2; transform-origin: 139.092px 202.773px;" id="elr5jgow02i2j" class="animable"></path><g id="eljdu67x9clgd"><g style="opacity: 0.15; transform-origin: 200.567px 266.127px;" class="animable" id="elrz1qe29pjdd"><path d="M158.72,313c-46.45-39.8-16.2-127.4,34.05-141.79h0c-1.82.29-3.65.62-5.47,1A95.54,95.54,0,1,0,288.78,316.35C274.11,334.41,207.46,354.8,158.72,313Z" id="elby3cwghfmuh" class="animable" style="transform-origin: 200.567px 266.127px;"></path></g></g></g></g><g id="freepik--ozone-layer--inject-4" class="animable animator-hidden" style="transform-origin: 207.813px 265.6px;"><g id="freepik--ozone-layer--inject-4" class="animable" style="transform-origin: 207.813px 265.6px;"><g id="eljxiyox3xpv"><path d="M259.41,370.39a116.82,116.82,0,1,1,22.41-195.26L256,167.18l8.33,17-19.54,11.05L265.65,204l-3,20.71,21.49.47L290.78,241l12.27-12.47,11.19,4.76-4.11-24.15c.88,1.6,1.73,3.21,2.53,4.85a116.83,116.83,0,0,1-53.25,156.39Z" style="fill: rgb(255, 255, 255); opacity: 0.3; transform-origin: 207.849px 265.558px;" class="animable" id="ela2cytmzwxzq"></path></g><g id="eljn7wmlodtep"><path d="M314.24,233.3l-11.19-4.76-5.11,5.2a95.74,95.74,0,0,0-37-47.59l3.4-1.92-8.33-17,25.79,7.95-8.5,1.93,9.37,10.11-4.15,7.1,12.45,3.9,3.79,15.59,6.93-6,6,9.41,2.47-8Z" style="fill: rgb(255, 255, 255); opacity: 0.5; transform-origin: 285.125px 200.485px;" class="animable" id="elld7gl88ubg"></path></g><path d="M207.92,383.22A117.62,117.62,0,1,1,282.3,174.54l-1,1.18A116.09,116.09,0,1,0,322.6,282.86,115.18,115.18,0,0,0,312,214.34c-.79-1.61-1.64-3.23-2.51-4.82l1.34-.73c.88,1.6,1.74,3.25,2.54,4.88A117.72,117.72,0,0,1,207.92,383.22Z" style="fill: #7E57C2; transform-origin: 207.813px 265.6px;" id="eliv1p2z1p15" class="animable"></path><path d="M290.78,241.77h-.14a.77.77,0,0,1-.56-.46l-6.48-15.42-21-.46a.76.76,0,0,1-.57-.27.78.78,0,0,1-.17-.6l2.95-20.12L244.53,196a.76.76,0,0,1-.09-1.36l18.92-10.7-8-16.4a.77.77,0,0,1,.11-.83.75.75,0,0,1,.8-.23L282,174.41a.76.76,0,0,1-.05,1.47l-7.21,1.63,8.47,9.14a.77.77,0,0,1,.1.9l-3.67,6.28,11.54,3.6a.77.77,0,0,1,.51.55l3.5,14.39,6-5.19a.76.76,0,0,1,.61-.18.75.75,0,0,1,.53.35l5.07,8,2-6.44a.75.75,0,0,1,.78-.54.78.78,0,0,1,.7.64l4.1,24.14a.76.76,0,0,1-1.05.83l-10.71-4.55-11.9,12.09A.76.76,0,0,1,290.78,241.77Zm-27.29-17.85,20.64.45a.78.78,0,0,1,.69.47L291,239.66,302.51,228a.77.77,0,0,1,.84-.17l9.91,4.21-3.34-19.62-1.53,5a.77.77,0,0,1-.63.53.75.75,0,0,1-.74-.35l-5.48-8.67-6.26,5.43a.76.76,0,0,1-1.24-.4l-3.69-15.18-12-3.76a.8.8,0,0,1-.49-.46.77.77,0,0,1,.06-.66l3.86-6.61-9-9.7a.77.77,0,0,1,.39-1.26l5.72-1.29-21.38-6.59,7.56,15.47a.76.76,0,0,1-.31,1l-18.19,10.28,19.39,8.07a.76.76,0,0,1,.46.81Z" style="fill: #7E57C2; transform-origin: 279.526px 204.107px;" id="elikwggk6zcx" class="animable"></path><g id="elrgnlaocmqu"><g style="opacity: 0.1; transform-origin: 207.813px 265.6px;" class="animable" id="elxg7vhlovg4"><path d="M207.92,383.22A117.62,117.62,0,1,1,282.3,174.54l-1,1.18A116.09,116.09,0,1,0,322.6,282.86,115.18,115.18,0,0,0,312,214.34c-.79-1.61-1.64-3.23-2.51-4.82l1.34-.73c.88,1.6,1.74,3.25,2.54,4.88A117.72,117.72,0,0,1,207.92,383.22Z" id="elnr6kmqt4zkd" class="animable" style="transform-origin: 207.813px 265.6px;"></path><path d="M290.78,241.77h-.14a.77.77,0,0,1-.56-.46l-6.48-15.42-21-.46a.76.76,0,0,1-.57-.27.78.78,0,0,1-.17-.6l2.95-20.12L244.53,196a.76.76,0,0,1-.09-1.36l18.92-10.7-8-16.4a.77.77,0,0,1,.11-.83.75.75,0,0,1,.8-.23L282,174.41a.76.76,0,0,1-.05,1.47l-7.21,1.63,8.47,9.14a.77.77,0,0,1,.1.9l-3.67,6.28,11.54,3.6a.77.77,0,0,1,.51.55l3.5,14.39,6-5.19a.76.76,0,0,1,.61-.18.75.75,0,0,1,.53.35l5.07,8,2-6.44a.75.75,0,0,1,.78-.54.78.78,0,0,1,.7.64l4.1,24.14a.76.76,0,0,1-1.05.83l-10.71-4.55-11.9,12.09A.76.76,0,0,1,290.78,241.77Zm-27.29-17.85,20.64.45a.78.78,0,0,1,.69.47L291,239.66,302.51,228a.77.77,0,0,1,.84-.17l9.91,4.21-3.34-19.62-1.53,5a.77.77,0,0,1-.63.53.75.75,0,0,1-.74-.35l-5.48-8.67-6.26,5.43a.76.76,0,0,1-1.24-.4l-3.69-15.18-12-3.76a.8.8,0,0,1-.49-.46.77.77,0,0,1,.06-.66l3.86-6.61-9-9.7a.77.77,0,0,1,.39-1.26l5.72-1.29-21.38-6.59,7.56,15.47a.76.76,0,0,1-.31,1l-18.19,10.28,19.39,8.07a.76.76,0,0,1,.46.81Z" id="eli9w21g59jv" class="animable" style="transform-origin: 279.526px 204.107px;"></path></g></g></g></g><g id="freepik--Arrows--inject-4" class="animable" style="transform-origin: 371.115px 138.425px;"><g id="freepik--arrows--inject-4" class="animable" style="transform-origin: 371.115px 138.425px;"><g id="freepik--Arrow--inject-4" class="animable" style="transform-origin: 400.275px 167.605px;"><polygon points="438.04 153.53 438.04 147.78 429.85 143.06 369.53 177.84 364.07 174.69 362.51 186.41 362.51 192.15 383.18 191.47 383.18 185.73 382.69 185.45 438.04 153.53" style="fill: #7E57C2; transform-origin: 400.275px 167.605px;" id="elxnwaf3b0y2" class="animable"></polygon><g id="el21l4u7uyad7"><polygon points="438.04 153.53 438.04 147.78 429.85 143.06 369.53 177.84 364.07 174.69 362.51 186.41 362.51 192.15 383.18 191.47 383.18 185.73 382.69 185.45 438.04 153.53" style="fill: rgb(255, 255, 255); opacity: 0.8; transform-origin: 400.275px 167.605px;" class="animable" id="el772jy54o5gx"></polygon></g><polygon id="freepik--down-arrow--inject-4" points="438.04 147.78 429.85 143.06 369.53 177.84 364.07 174.69 362.51 186.41 383.18 185.73 377.72 182.57 438.04 147.78" style="fill: #7E57C2; transform-origin: 400.275px 164.735px;" class="animable"></polygon><g id="freepik--down-arrow--inject-4"><polygon points="438.04 147.78 429.85 143.06 369.53 177.84 364.07 174.69 362.51 186.41 383.18 185.73 377.72 182.57 438.04 147.78" style="fill: rgb(255, 255, 255); opacity: 0.7; transform-origin: 400.275px 164.735px;" class="animable" id="elcpiwa3t9rrk"></polygon></g><polygon points="438.04 153.53 438.04 147.78 377.72 182.57 382.69 185.45 438.04 153.53" style="fill: #7E57C2; transform-origin: 407.88px 166.615px;" id="els5g9nrs3ng" class="animable"></polygon><g id="elriel1wh078"><polygon points="438.04 153.53 438.04 147.78 377.72 182.57 382.69 185.45 438.04 153.53" style="fill: rgb(255, 255, 255); opacity: 0.5; transform-origin: 407.88px 166.615px;" class="animable" id="el1wb34j9ip5z"></polygon></g></g><g id="freepik--arrow--inject-4" class="animable" style="transform-origin: 359.62px 159.06px;"><polygon points="408.15 138.81 408.15 133.07 399.96 128.34 318.1 175.48 312.64 172.32 311.09 184.04 311.09 189.78 331.75 189.1 331.75 183.36 331.27 183.08 408.15 138.81" style="fill: #7E57C2; transform-origin: 359.62px 159.06px;" id="elb7wknhpekf" class="animable"></polygon><g id="elytxdeb47hfd"><polygon points="408.15 138.81 408.15 133.07 399.96 128.34 318.1 175.48 312.64 172.32 311.09 184.04 311.09 189.78 331.75 189.1 331.75 183.36 331.27 183.08 408.15 138.81" style="fill: rgb(255, 255, 255); opacity: 0.8; transform-origin: 359.62px 159.06px;" class="animable" id="ele8w4qylnwv4"></polygon></g><polygon id="freepik--down-arrow--inject-4" points="408.15 133.07 399.96 128.34 318.1 175.48 312.64 172.32 311.09 184.04 331.75 183.36 326.29 180.21 408.15 133.07" style="fill: #7E57C2; transform-origin: 359.62px 156.19px;" class="animable"></polygon><g id="freepik--down-arrow--inject-4"><polygon points="408.15 133.07 399.96 128.34 318.1 175.48 312.64 172.32 311.09 184.04 331.75 183.36 326.29 180.21 408.15 133.07" style="fill: rgb(255, 255, 255); opacity: 0.7; transform-origin: 359.62px 156.19px;" class="animable" id="elgxrhwln7ava"></polygon></g><polygon points="408.15 138.81 408.15 133.07 326.29 180.21 331.27 183.08 408.15 138.81" style="fill: #7E57C2; transform-origin: 367.22px 158.075px;" id="eltnlpmn9lem8" class="animable"></polygon><g id="elgtyelv8fq0q"><polygon points="408.15 138.81 408.15 133.07 326.29 180.21 331.27 183.08 408.15 138.81" style="fill: rgb(255, 255, 255); opacity: 0.5; transform-origin: 367.22px 158.075px;" class="animable" id="elfq35hc6a2co"></polygon></g></g><g id="freepik--arrow--inject-4" class="animable" style="transform-origin: 345.345px 135.37px;"><polygon points="386.26 119.49 386.26 113.74 378.07 109.01 311.44 147.42 305.98 144.27 304.43 155.98 304.43 161.73 325.09 161.05 325.09 155.3 324.61 155.02 386.26 119.49" style="fill: #7E57C2; transform-origin: 345.345px 135.37px;" id="eljh8zvh20eb" class="animable"></polygon><g id="el2m0wfcg5erx"><polygon points="386.26 119.49 386.26 113.74 378.07 109.01 311.44 147.42 305.98 144.27 304.43 155.98 304.43 161.73 325.09 161.05 325.09 155.3 324.61 155.02 386.26 119.49" style="fill: rgb(255, 255, 255); opacity: 0.8; transform-origin: 345.345px 135.37px;" class="animable" id="elm9uzlz0sfne"></polygon></g><polygon id="freepik--down-arrow--inject-4" points="386.26 113.74 378.07 109.01 311.44 147.42 305.98 144.27 304.43 155.98 325.09 155.3 319.63 152.15 386.26 113.74" style="fill: #7E57C2; transform-origin: 345.345px 132.495px;" class="animable"></polygon><g id="freepik--down-arrow--inject-4"><polygon points="386.26 113.74 378.07 109.01 311.44 147.42 305.98 144.27 304.43 155.98 325.09 155.3 319.63 152.15 386.26 113.74" style="fill: rgb(255, 255, 255); opacity: 0.7; transform-origin: 345.345px 132.495px;" class="animable" id="elbjpade0sz1d"></polygon></g><polygon points="386.26 119.49 386.26 113.74 319.63 152.15 324.61 155.02 386.26 119.49" style="fill: #7E57C2; transform-origin: 352.945px 134.38px;" id="elf9dr8l4xajv" class="animable"></polygon><g id="eldec22h0v58s"><polygon points="386.26 119.49 386.26 113.74 319.63 152.15 324.61 155.02 386.26 119.49" style="fill: rgb(255, 255, 255); opacity: 0.5; transform-origin: 352.945px 134.38px;" class="animable" id="elm3rf1tyevz"></polygon></g></g><g id="freepik--arrow--inject-4" class="animable" style="transform-origin: 338.665px 107.365px;"><polygon points="373.14 95.18 373.14 89.43 364.95 84.7 311.2 115.72 305.74 112.57 304.19 124.28 304.19 130.03 324.85 129.35 324.85 123.6 324.37 123.32 373.14 95.18" style="fill: #7E57C2; transform-origin: 338.665px 107.365px;" id="elj4ubg36516" class="animable"></polygon><g id="elvs0f2rstv1t"><polygon points="373.14 95.18 373.14 89.43 364.95 84.7 311.2 115.72 305.74 112.57 304.19 124.28 304.19 130.03 324.85 129.35 324.85 123.6 324.37 123.32 373.14 95.18" style="fill: rgb(255, 255, 255); opacity: 0.8; transform-origin: 338.665px 107.365px;" class="animable" id="eld2t2iak4ulh"></polygon></g><polygon id="freepik--down-arrow--inject-4" points="373.14 89.43 364.95 84.7 311.2 115.72 305.74 112.57 304.19 124.28 324.85 123.6 319.39 120.45 373.14 89.43" style="fill: #7E57C2; transform-origin: 338.665px 104.49px;" class="animable"></polygon><g id="freepik--down-arrow--inject-4"><polygon points="373.14 89.43 364.95 84.7 311.2 115.72 305.74 112.57 304.19 124.28 324.85 123.6 319.39 120.45 373.14 89.43" style="fill: rgb(255, 255, 255); opacity: 0.7; transform-origin: 338.665px 104.49px;" class="animable" id="el41aoyh9cj8y"></polygon></g><polygon points="373.14 95.18 373.14 89.43 319.39 120.45 324.37 123.32 373.14 95.18" style="fill: #7E57C2; transform-origin: 346.265px 106.375px;" id="eluqyrmfu7hjm" class="animable"></polygon><g id="el73snwubzht5"><polygon points="373.14 95.18 373.14 89.43 319.39 120.45 324.37 123.32 373.14 95.18" style="fill: rgb(255, 255, 255); opacity: 0.5; transform-origin: 346.265px 106.375px;" class="animable" id="elllewc660ar8"></polygon></g></g></g></g><defs>     <filter id="active" height="200%">         <feMorphology in="SourceAlpha" result="DILATED" operator="dilate" radius="2"></feMorphology>                <feFlood flood-color="#32DFEC" flood-opacity="1" result="PINK"></feFlood>        <feComposite in="PINK" in2="DILATED" operator="in" result="OUTLINE"></feComposite>        <feMerge>            <feMergeNode in="OUTLINE"></feMergeNode>            <feMergeNode in="SourceGraphic"></feMergeNode>        </feMerge>    </filter>    <filter id="hover" height="200%">        <feMorphology in="SourceAlpha" result="DILATED" operator="dilate" radius="2"></feMorphology>                <feFlood flood-color="#ff0000" flood-opacity="0.5" result="PINK"></feFlood>        <feComposite in="PINK" in2="DILATED" operator="in" result="OUTLINE"></feComposite>        <feMerge>            <feMergeNode in="OUTLINE"></feMergeNode>            <feMergeNode in="SourceGraphic"></feMergeNode>        </feMerge>            <feColorMatrix type="matrix" values="0   0   0   0   0                0   1   0   0   0                0   0   0   0   0                0   0   0   1   0 "></feColorMatrix>    </filter></defs></svg>